<?xml version="1.0" encoding="utf-8" ?><svg xmlns="http://www.w3.org/2000/svg" xmlns:xlink="http://www.w3.org/1999/xlink" width="850" height="171" viewBox="0 0 850 171"><path fill="#1181F3" transform="scale(0.20752 0.207524)" d="M27.9691 596.358C29.2273 556.636 28.5936 514.786 28.9409 474.859C29.8434 407.932 30.3463 341.001 30.4497 274.069L29.7417 191.931C29.0844 113.204 26.7796 35.4137 127.293 24.7407C170.976 20.1022 212.884 21.8604 256.652 22.1762L429.415 22.463L753.787 22.5638C813.5 22.5207 875.636 22.8113 935.186 22.8966C1071.76 23.092 1060.65 116.497 1060.15 219.577L1059.92 381.68L1060.8 602.443C1061.4 684.889 1082.69 788.514 968.624 803.441C955.668 805.137 941.04 804.357 927.878 804.339L864.893 804.291L652.19 804.43L305.882 804.681L212.318 804.95C162.446 805.59 91.8764 812.154 52.9646 772.169C38.4603 757.265 32.9268 732.511 30.4134 712.311C28.1008 698.248 28.987 685.636 28.5816 671.697C27.8728 647.324 29.2612 620.472 27.9691 596.358ZM855.197 645.692C860.758 636.936 863.216 544.614 862.094 529.393C863.373 518.058 862.912 494.875 862.946 482.929C863.004 452.322 862.897 421.715 862.625 391.109C862.471 373.196 861.426 352.476 860.951 334.634C860.528 318.738 861.96 273.532 853.985 261.171C841.476 252.626 771.023 252.878 752.752 252.574C687.616 251.961 622.475 252.125 557.343 253.065C548.012 253.168 495.956 255.519 491.074 251.465L490.627 251.086C483.608 245.229 476.686 235.488 470.503 228.506C454.91 210.9 438.662 187.98 422.515 171.375C420.019 171.145 417.517 170.967 415.013 170.841C384.8 169.42 353.247 169.604 323.001 169.949C299.264 170.22 251.536 167.166 234.142 183.022C231.445 187.66 228.389 195.598 228.198 200.913C225.178 284.616 230.152 368.52 226.199 452.237C225.988 456.725 225.53 461.887 225.772 466.317C224.715 495.633 218.247 622.822 234.996 641.414C243.296 650.627 322.799 651.749 339.707 652.141C454.387 654.108 569.089 654.429 683.778 653.104C712.079 652.875 740.471 652.46 768.772 652.239C794.057 652.041 832.208 657.83 855.197 645.692Z"/><path fill="#FAFAF9" fill-opacity="0.011764706" transform="scale(0.20752 0.207524)" d="M234.142 183.022C234.801 192.533 233.117 247.35 232.746 257.937C231.708 287.53 239.258 448.837 225.772 466.317C225.53 461.887 225.988 456.725 226.199 452.237C230.152 368.52 225.178 284.616 228.198 200.913C228.389 195.598 231.445 187.66 234.142 183.022Z"/><path fill="#FAFAF9" fill-opacity="0.011764706" transform="scale(0.20752 0.207524)" d="M853.985 261.171C861.96 273.532 860.528 318.738 860.951 334.634C861.426 352.476 862.471 373.196 862.625 391.109C856.223 361.02 854.256 329.408 853.947 298.76C853.827 286.908 852.879 272.778 853.985 261.171Z"/><path fill="#FAFAF9" fill-opacity="0.011764706" transform="scale(0.20752 0.207524)" d="M855.197 645.692C854.908 644.27 854.658 642.058 854.635 640.639C854.089 607.118 853.807 575.185 859.987 542.086C860.977 536.785 859.624 532.194 862.094 529.393C863.216 544.614 860.758 636.936 855.197 645.692Z"/><path transform="scale(0.20752 0.207524)" d="M3239.45 237.82C3334.45 230.898 3417.07 302.303 3423.98 397.303C3430.9 492.303 3359.49 574.92 3264.48 581.827C3169.49 588.733 3086.89 517.332 3079.98 422.342C3073.06 327.352 3144.46 244.742 3239.45 237.82ZM3265.53 502.111C3316.35 494.82 3351.6 447.666 3344.22 396.862C3336.83 346.058 3289.61 310.895 3238.82 318.377C3188.16 325.839 3153.12 372.906 3160.48 423.576C3167.85 474.246 3214.85 509.383 3265.53 502.111Z"/><path transform="scale(0.20752 0.207524)" d="M3558.81 244.462C3617.5 242.967 3707.13 243.033 3742.98 298.555C3757.9 321.655 3759.99 365.179 3754.92 391.89C3749.65 419.609 3725.68 441.677 3702.67 456.188C3715.36 484.362 3729.5 511.645 3742.01 539.836C3748.18 553.736 3753.87 565.679 3761.42 578.882C3739.46 579.677 3703.77 579.657 3681.95 578.804C3673.88 572.805 3670.31 568.763 3664.62 560.459C3652.95 544.339 3642.95 520.277 3635.32 501.899C3631.37 492.409 3628.27 482.284 3623.31 473.259C3609.74 471.888 3589.25 471.313 3575.5 470.875C3575.85 507.244 3575.36 543.35 3575.9 579.82C3553.82 580.971 3518.23 580.237 3495.88 579.865L3496.05 246.294C3516.06 245.166 3538.58 245.034 3558.81 244.462ZM3575.66 403.74C3604.57 405.088 3644.83 408.125 3671.27 395.348C3684.69 380.9 3698.88 354.929 3679.96 339.158C3657.51 320.446 3612.29 317.767 3584.01 318.448C3575.96 322.624 3575.7 336.206 3575.55 344.422C3575.19 364.146 3575.55 384.01 3575.66 403.74Z"/><path transform="scale(0.20752 0.207524)" d="M1452.95 245.726C1477.78 246.323 1507.45 244.974 1531.49 246.476C1533.64 321.889 1534.31 397.337 1533.5 472.776C1533.4 508.172 1532.42 543.398 1532.65 578.8L1461.61 578.867C1423.45 528.489 1389.86 467.589 1352.72 415.931C1345.54 405.952 1339.8 394.894 1332.18 385.064C1330.97 394.178 1330.94 402.822 1331.3 411.986C1333.49 467.604 1331.82 523.214 1332.31 578.842C1304.66 579.272 1276.7 578.519 1249.28 579.03C1250.32 574.017 1249.18 520.2 1249.12 511.374C1248.9 456.853 1248.96 402.332 1249.31 347.812L1250.48 278.417C1250.55 271.552 1251.19 252.304 1249.7 246.452C1267.64 245.848 1304.7 245.254 1322.5 246.31C1342.28 274.085 1361.35 302.357 1379.69 331.099C1387.78 344.068 1395.51 357.356 1404.25 369.916C1417.34 388.747 1429 410.935 1444.52 427.852C1445.27 430.507 1450.2 435.312 1452.33 437.639C1451.96 398.207 1453.64 358.46 1453.18 318.988C1452.9 294.566 1452.72 270.149 1452.95 245.726Z"/><path transform="scale(0.20752 0.207524)" d="M2343.5 245.168C2363.46 244.487 2401.99 244.292 2421.46 245.474C2455.42 324.757 2487.53 404.823 2517.74 485.607C2528.73 514.11 2540.17 552.228 2551.77 578.391C2527.88 579.832 2484.86 579.181 2460.41 578.508C2459.29 565.833 2453.08 539.595 2444.74 529.295C2441 524.688 2428.5 525.462 2422.25 525.437C2388.36 525.557 2350.78 523.686 2317.46 524.988C2313.18 539.7 2305.81 564.283 2303.41 578.757C2290.9 579.627 2271.17 578.959 2258.21 579.033C2246.1 579.103 2224.76 579.611 2213.25 578.389C2243.82 504.531 2273.13 430.164 2301.19 355.32L2330.08 280.427C2333.9 270.506 2339.32 253.75 2343.5 245.168ZM2382.5 460.685C2394.51 460.771 2408.14 461.19 2420.02 460.871C2414.32 443.115 2393.99 360.426 2381.14 354.382C2375.46 364.896 2344.28 449.974 2342.98 460.223C2356.15 460.585 2369.32 460.739 2382.5 460.685Z"/><path transform="scale(0.20752 0.207524)" d="M1590.99 245.933C1646.95 246.737 1703.7 245.246 1759.67 245.817C1781.58 246.041 1813.74 244.602 1834.95 246.088C1835.2 270.257 1835.6 294.425 1836.15 318.59C1800.7 319.681 1763.87 318.168 1728.33 318.638C1721.91 318.722 1692.84 318.134 1688.7 318.94C1682.43 318.745 1676.8 318.559 1670.53 318.832C1669.56 335.406 1670.41 360.413 1670.54 377.584L1684.71 377.68C1710.26 377.942 1755.51 377.069 1779.14 379.218C1779.69 400.672 1779.91 422.134 1779.79 443.595C1745.33 444.289 1713.08 438.845 1678.77 446.679C1675.1 448.839 1672.29 450.439 1671.59 454.912C1669.67 467.168 1670.09 491.229 1671.43 503.384C1673.22 505.419 1673.88 504.806 1677.46 505.192C1726.39 502.953 1784.91 504.375 1834.85 503.668C1834.76 526.99 1834.42 556.394 1835.68 579.396C1829.99 578.654 1813.22 579.018 1806.96 579.02L1749.4 579.035C1699.35 579.035 1638.43 577.488 1589.14 579.231C1590.84 468.141 1591.46 357.036 1590.99 245.933Z"/><path transform="scale(0.20752 0.207524)" d="M3818.35 246.834C3826.94 245.503 3843.56 245.765 3853.07 245.672C3874.69 245.47 3896.3 245.409 3917.92 245.489L4010.96 246.119C4025.82 246.231 4045.26 245.731 4059.71 246.56C4060.35 270.776 4059.87 295.248 4060.56 319.099L3952.24 318.743C3937.23 318.676 3911.56 317.887 3896.96 318.949C3896.58 339.221 3897.42 358.291 3897.51 378.428C3933.99 379.66 3972.51 377.494 4008.48 378.939C4009.28 400.892 4008.48 422.99 4009.31 444.613C3988.78 444.166 3911.01 440.086 3897.9 448.492C3893.96 453.806 3896.24 495.437 3896.36 505.031C3950.15 506.093 4006.88 503.397 4060.05 505.039L4060.94 578.946L3885.6 578.864L3838.39 578.718C3834.73 578.706 3819.3 578.5 3816.53 578.977C3816.47 468.781 3814.93 356.699 3818.35 246.834Z"/><path transform="scale(0.20752 0.207524)" d="M2077.28 246.148C2102.73 245.462 2141.48 245.31 2166.63 246.465C2163.08 254.503 2156.82 265.726 2152.67 273.79C2142.4 293.787 2131.7 313.56 2120.58 333.097C2106.18 357.905 2091.72 380.819 2078.72 406.511C2105.7 456.051 2148.18 524.652 2168.4 576.002C2156.25 580.507 2141.26 579.156 2128.12 579.037C2120.08 578.919 2084.13 580.312 2080.95 577.917C2068.97 568.895 2038.45 489.937 2029.21 484.337C2026.31 485.227 2024.06 487.534 2022.51 490.155C2005.48 519.039 1991.51 549.803 1974.83 578.92C1949.85 580.021 1908.61 579.587 1883.41 578.801C1900.91 546.053 1919.05 513.649 1937.81 481.607C1945.87 468.025 1953.85 454.573 1961.73 440.876C1967.1 431.552 1973.29 422.96 1978.18 413.216C1972.7 397.626 1960.17 375.733 1952.51 360.525C1933.64 323.071 1913.81 287.027 1899.03 247.633C1907.53 246.55 1917.22 246.651 1925.87 246.52C1934.34 246.439 1977.98 243.451 1981.9 249.228C1996.24 270.343 2008.89 295.238 2020.49 318.114C2023.54 324.124 2025.98 328.434 2030.24 333.717C2039.3 325.884 2068.17 263.195 2077.28 246.148Z"/><path transform="scale(0.20752 0.207524)" d="M2726.76 385.826C2733.37 343.897 2758.81 299.663 2793.4 274.414C2835.28 243.847 2877.75 237.162 2928.48 246.3C2949.83 250.144 3015.8 264.093 3015.04 294.466C3014.71 307.671 2978.97 341.853 2966.77 350.56C2966.32 350.881 2965.86 351.194 2965.4 351.497C2942.99 330.572 2924.25 311.714 2891.07 313.016C2813.99 316.042 2781.85 429.817 2837.97 478.202C2854.89 492.792 2877.75 505.386 2900.49 506.088C2923.92 504.524 2945.28 484.213 2963.06 472.387C2978.1 481.914 3011.97 505.955 3022.08 519.9C3000.38 550.621 2958.62 572.466 2922.03 578.846C2877.46 586.535 2831.66 575.968 2794.96 549.526C2762.8 526.829 2734.53 484.854 2727.87 445.922C2727.66 444.674 2727.49 443.418 2727.38 442.158C2724.18 422.62 2723.38 405.342 2726.76 385.826Z"/><path fill="#FAFAF9" fill-opacity="0.011764706" transform="scale(0.20752 0.207524)" d="M1589.14 579.231C1587.93 579.356 1583.23 579.813 1583.24 578.204C1583.48 476.711 1581.31 374.619 1584.18 273.04C1584.38 265.729 1581.91 252 1584.88 246.408C1587.85 245.116 1587.37 245.583 1590.99 245.933C1591.46 357.036 1590.84 468.141 1589.14 579.231Z"/><path fill="#FAFAF9" fill-opacity="0.011764706" transform="scale(0.20752 0.207524)" d="M3816.53 578.977C3813.88 579.65 3812.49 579.803 3810.44 578.265C3809.33 566.685 3809.91 550.396 3809.99 538.385C3810.22 515.414 3810.33 492.443 3810.32 469.471C3809.93 424.946 3809.8 380.418 3809.92 335.891C3809.98 321.195 3808.49 255.13 3815.14 246.778L3818.35 246.834C3814.93 356.699 3816.47 468.781 3816.53 578.977Z"/><path fill="#FAFAF9" fill-opacity="0.011764706" transform="scale(0.20752 0.207524)" d="M1249.28 579.03C1247.44 578.848 1247.32 578.623 1245.79 577.456C1244.88 572.312 1244.57 567.453 1244.31 562.237C1242.28 524.874 1242.66 486.948 1242.91 449.553C1243.29 391.044 1240.95 333.057 1247.14 274.761C1248.07 266.005 1247 256.513 1247.73 247.687L1249.7 246.452C1251.19 252.304 1250.55 271.552 1250.48 278.417L1249.31 347.812C1248.96 402.332 1248.9 456.853 1249.12 511.374C1249.18 520.2 1250.32 574.017 1249.28 579.03Z"/><path fill="#FAFAF9" fill-opacity="0.019607844" transform="scale(0.20752 0.207524)" d="M1444.52 427.852C1444.98 427.432 1445.54 426.929 1446.18 426.344C1447.03 394.626 1446.44 343.335 1447.04 313.96C1447.49 291.933 1444.83 260.952 1446.99 246.701C1449.33 245.082 1449.47 245.671 1452.95 245.726C1452.72 270.149 1452.9 294.566 1453.18 318.988C1453.64 358.46 1451.96 398.207 1452.33 437.639C1450.2 435.312 1445.27 430.507 1444.52 427.852Z"/><path fill="#FAFAF9" fill-opacity="0.015686275" transform="scale(0.20752 0.207524)" d="M30.4134 712.311C27.1645 709.651 26.576 709.025 25.5082 704.975L25.4202 704.63L24.3908 706.558C22.6674 697.686 22.9925 676.848 22.9641 667.82C22.9246 655.278 20.6437 602.975 27.9691 596.358C29.2612 620.472 27.8728 647.324 28.5816 671.697C28.987 685.636 28.1008 698.248 30.4134 712.311Z"/><path fill="#FAFAF9" fill-opacity="0.019607844" transform="scale(0.20752 0.207524)" d="M1834.85 503.668C1838.75 503.61 1838.22 502.99 1840.72 504.941C1841.48 519.591 1842.35 563.431 1841.27 578.085C1839.33 579.998 1839.32 579.346 1835.68 579.396C1834.42 556.394 1834.76 526.99 1834.85 503.668Z"/><path fill="#FAFAF9" fill-opacity="0.015686275" transform="scale(0.20752 0.207524)" d="M1670.53 318.832C1676.8 318.559 1682.43 318.745 1688.7 318.94L1687.93 319.228C1681.49 321.588 1681.88 318.886 1677.75 321.599C1677.13 326.253 1676.26 372.097 1677.56 375.584C1681.37 377.355 1682.91 376.013 1684.71 377.68L1670.54 377.584C1670.41 360.413 1669.56 335.406 1670.53 318.832Z"/><path fill="#FAFAF9" fill-opacity="0.015686275" transform="scale(0.20752 0.207524)" d="M1678.77 446.679C1675.66 466.355 1677.75 485.193 1677.46 505.192C1673.88 504.806 1673.22 505.419 1671.43 503.384C1670.09 491.229 1669.67 467.168 1671.59 454.912C1672.29 450.439 1675.1 448.839 1678.77 446.679Z"/><path fill="#FAFAF9" fill-opacity="0.011764706" transform="scale(0.20752 0.207524)" d="M2727.38 442.158C2726.4 440.423 2724.38 439.368 2723.04 438.194C2718.34 434.074 2718.61 419.663 2718.29 413.347C2717.95 406.83 2717.99 390.853 2723.14 386.313C2723.95 385.601 2725.41 385.848 2726.76 385.826C2723.38 405.342 2724.18 422.62 2727.38 442.158Z"/></svg>