<svg width="18" height="18" viewBox="0 0 18 18" fill="none" xmlns="http://www.w3.org/2000/svg">
<path fill-rule="evenodd" clip-rule="evenodd" d="M11.253 1.19159C11.5696 0.83031 12.1639 1.07987 12.1277 1.55887L11.7728 6.24564C11.7509 6.53583 11.9804 6.78339 12.2714 6.78339H16.6747C17.1045 6.78339 17.334 7.28971 17.0508 7.61292L8.99346 16.8073C8.67686 17.1686 8.08259 16.919 8.11885 16.44L8.47366 11.7533C8.49562 11.4631 8.2661 11.2156 7.97508 11.2156H3.57177C3.14201 11.2156 2.91249 10.7092 3.19573 10.386L11.253 1.19159Z" fill="#1F94FD"/>
<path fill-rule="evenodd" clip-rule="evenodd" d="M1.5 3.75C1.5 3.33579 1.83579 3 2.25 3H6C6.41421 3 6.75 3.33579 6.75 3.75C6.75 4.16421 6.41421 4.5 6 4.5H2.25C1.83579 4.5 1.5 4.16421 1.5 3.75Z" fill="#1F94FD"/>
<path fill-rule="evenodd" clip-rule="evenodd" d="M2.25 14.25C2.25 13.8358 2.58579 13.5 3 13.5H6C6.41421 13.5 6.75 13.8358 6.75 14.25C6.75 14.6642 6.41421 15 6 15H3C2.58579 15 2.25 14.6642 2.25 14.25Z" fill="#1F94FD"/>
<path fill-rule="evenodd" clip-rule="evenodd" d="M0 6.75C0 6.33579 0.335786 6 0.75 6H2.25C2.66421 6 3 6.33579 3 6.75C3 7.16421 2.66421 7.5 2.25 7.5H0.75C0.335786 7.5 0 7.16421 0 6.75Z" fill="#1F94FD"/>
</svg>
