<svg width="18" height="18" viewBox="0 0 18 18" fill="none" xmlns="http://www.w3.org/2000/svg">
<mask id="mask0_2_312" style="mask-type:luminance" maskUnits="userSpaceOnUse" x="0" y="0" width="18" height="18">
<path d="M18 0H0V18H18V0Z" fill="white"/>
</mask>
<g mask="url(#mask0_2_312)">
<path d="M16.5 17.25H1.5C1.08525 17.25 0.75 16.914 0.75 16.5C0.75 16.086 1.08525 15.75 1.5 15.75H16.5C16.9147 15.75 17.25 16.086 17.25 16.5C17.25 16.914 16.9147 17.25 16.5 17.25Z" fill="#777A88"/>
<path d="M13.8105 6.0012L15.3105 4.5012C15.594 4.2177 15.75 3.8412 15.75 3.4407C15.75 3.0402 15.594 2.66295 15.3105 2.3802L14.121 1.1907C13.5367 0.605704 12.5842 0.605704 12 1.1907L10.5 2.6907L13.8105 6.0012Z" fill="#777A88"/>
<path d="M9.43979 3.75L3.97004 9.21975C3.89804 9.29175 3.84179 9.37725 3.80354 9.471L2.30354 13.221C2.19254 13.5 2.25704 13.818 2.47004 14.0303C2.61329 14.1735 2.80529 14.25 3.00029 14.25C3.09404 14.25 3.18854 14.2328 3.27854 14.1968L7.02854 12.6968C7.12304 12.6593 7.20854 12.6023 7.28054 12.5303L12.7503 7.0605L9.43979 3.75Z" fill="#777A88"/>
</g>
</svg>
