<svg width="18" height="18" viewBox="0 0 18 18" fill="none" xmlns="http://www.w3.org/2000/svg">
<path d="M15.2499 16.0009C15.0579 16.0009 14.8659 15.9279 14.7199 15.7809L10.7549 11.8159C10.4619 11.5229 10.4619 11.0479 10.7549 10.7549C11.0479 10.4619 11.5229 10.4619 11.8159 10.7549L15.7809 14.7199C16.0739 15.0129 16.0739 15.4879 15.7809 15.7809C15.6349 15.9269 15.4429 16.0009 15.2509 16.0009H15.2499Z" fill="#777A88"/>
<path d="M7.75 13.5C4.58 13.5 2 10.92 2 7.75C2 4.58 4.58 2 7.75 2C10.92 2 13.5 4.58 13.5 7.75C13.5 10.92 10.92 13.5 7.75 13.5ZM7.75 3.5C5.407 3.5 3.5 5.407 3.5 7.75C3.5 10.093 5.407 12 7.75 12C10.093 12 12 10.093 12 7.75C12 5.407 10.093 3.5 7.75 3.5Z" fill="#777A88"/>
</svg>
